<svg xmlns="http://www.w3.org/2000/svg" viewBox="-11 80 1046 1040"><path d="M459 1009q-42.5 0-68-33.5h-7q-35.5 0-60.75-25.5T298 888.5q0-11.5-8.75-23T252.5 835q-39.5-27.5-54.25-52.5T183.5 718q0-19 6-35.5-20-58.5-20-121.5 0-72.5 25.75-134t72.25-107.25 108.75-71T512 223.5t135.75 25.25 108.75 71T828.75 427t25.75 134q0 63-20 121.5 6 16.5 6 35.5 0 39.5-14.5 64.5T771.5 835Q744 854 735 865.5t-9 23q0 36-25.25 61.5T640 975.5h-7q-25.5 33.5-68 33.5-29.5 0-53-18-23.5 18-53 18m-306 111c-22.333 0-40.75-7.33-55.25-22Q76 1075.995 71 1039.5c-24.667-3.33-44.5-12.25-59.5-26.75Q-11 991-11 958q0-31 25-51.25T84 880l3.5-.5q29.5-4 42.75-9t23.25-15L226 784l26.5 29-71 70.5q-15 15-34.25 23t-53.75 13l-3.5.5q-61 9-61 38 0 22.5 19.5 32.75c13 6.833 32.333 11.08 58 12.75 1.667 27.67 6.25 47.33 13.75 59S138.667 1080 153 1080c9.333 0 16.917-4.42 22.75-13.25s9.917-23.42 12.25-43.75l.5-4q5-38 12-56.75t21-33.25l76-76.5 26.5 30-74.5 74.5q-9 9-13 21.75c-2.667 8.5-5.333 23.58-8 45.25l-.5 4c-3.667 30-11.75 52.83-24.25 68.5S174.333 1120 153 1120m264-145.5-30-20v-65q0-17.5 15-17.5t15 17.5Zm80 0v-85q0-17.5 15-17.5t15 17.5v85Zm110 0v-85q0-17.5 15-17.5t15 17.5v65ZM360.5 695q-29 0-49-21.5t-20-53q0-33 22-57t53-24q29 0 49 21.5t20 53q0 32-21.75 56.5T360.5 695M486 781.5q-18.5 0-18.5-26.5 0-15 5.75-35.75t15.75-36.5T512 667t23 15.75 15.75 36.5T556.5 755q0 26.5-18.5 26.5-6 0-12.5-3.25T512 770q-7 5-13.5 8.25T486 781.5M459 969q15 0 29.25-6T512 947q10 10 24 16t29 6q16.5 0 29.75-10.75T613 930q19 5.5 27 5.5 19 0 32.5-13.75T686 888.5q0-27 14-46.75T746 803t43.25-36.75T800.5 718q0-18-8.5-34.5 22.5-61 22.5-122.5 0-85.5-39.5-152.75t-107.75-106T512 263.5t-155.5 38.75-107.75 106T209.5 561q0 61.5 22.5 122.5-8.5 16.5-8.5 34.5 0 30.5 11.25 48.25T278 803q32.5 19 46.25 38.75T338 888.5q0 19.5 13.5 33.25T384 935.5q8 0 27-5.5 5 17.5 18.25 28.25T459 969M220 410.5l-66.5-66q-10-10-23.25-15t-42.75-9L84 320q-45-6.5-70-26.75T-11 242q0-33 22.5-54.75T71 160.5q5-37 26.75-58.75T153 80q32 0 50.75 23.5T228 172l.5 4q4 32.5 8 45.25t13 21.75l64.5 64.5-26.5 30-66-66.5q-14-14.5-21-33.25t-12-56.75l-.5-4q-3.5-31-12.25-44T153 120q-21.5 0-32.75 17.5t-13.75 59q-38.5 2-58 12.5T29 242q0 29 61 38l3.5.5q34.5 5 53.75 13t34.25 23l65 65ZM871 1120c-21.333 0-38.25-7.83-50.75-23.5S799.667 1058 796 1028l-.5-4c-2.667-21.67-5.333-36.75-8-45.25q-4-12.75-13-21.75L700 882.5l26.5-30 76 76.5q14.5 14.5 21.25 33.25T835.5 1019l.5 4c2.667 20.33 6.833 34.92 12.5 43.75S861.667 1080 871 1080c14.333 0 25.25-5.83 32.75-17.5s12.083-31.33 13.75-59c25.667-1.67 45-5.917 58-12.75Q995 980.5 995 958q0-29-61-38l-3.5-.5q-34.5-5-53.75-13t-34.25-23l-71-70.5 26.5-29 72.5 71.5q10 10 23.5 15t42.5 9l3.5.5q45 6.5 70 26.75c16.67 13.5 25 30.583 25 51.25q0 33-22.5 54.75c-15 14.5-34.833 23.42-59.5 26.75q-5 36.495-26.5 58.5c-14.333 14.67-32.833 22-55.5 22M663.5 695q-31.5 0-53.25-24.5T588.5 614q0-31.5 20-53t49-21.5q31 0 53 24t22 57q0 31.5-20 53t-49 21.5M804 410.5l-26.5-29 65-65q15-15 34.25-23t53.75-13l3.5-.5q61-9 61-38 0-22.5-19.5-33t-58-12.5q-2.5-41.5-13.75-59T871 120q-14 0-22.5 13T836 177l-.5 4q-5 38-11.75 56.75T802.5 271l-66 66.5-26.5-30 64.5-64.5q9-9 13-21.75t8-45.25l.5-4q5.5-45 24.25-68.5T871 80q34 0 55.5 21.75T953 160.5q37 5 59.5 26.75T1035 242c0 20.667-8.33 37.75-25 51.25Q985 313.5 940 320l-3.5.5q-29 4-42.5 9t-23.5 15Z"/></svg>